<svg width="69" height="69" viewBox="0 0 69 69" fill="none" xmlns="http://www.w3.org/2000/svg">
<path d="M57.5 51.75H51.75V26.5938L34.5 37.375L17.25 26.5938V51.75H11.5V17.25H14.95L34.5 29.4688L54.05 17.25H57.5V51.75ZM57.5 11.5H11.5C8.30875 11.5 5.75 14.0588 5.75 17.25V51.75C5.75 53.275 6.3558 54.7375 7.43414 55.8159C8.51247 56.8942 9.975 57.5 11.5 57.5H57.5C59.025 57.5 60.4875 56.8942 61.5659 55.8159C62.6442 54.7375 63.25 53.275 63.25 51.75V17.25C63.25 15.725 62.6442 14.2625 61.5659 13.1841C60.4875 12.1058 59.025 11.5 57.5 11.5Z" fill="#F8F8F8"/>
</svg>
