<svg width="49" height="56" viewBox="0 0 49 56" fill="none" xmlns="http://www.w3.org/2000/svg">
<g clip-path="url(#clip0_226_932)">
<path d="M24.5 22.1659C23.3462 22.1664 22.2185 22.5089 21.2594 23.1502C20.3002 23.7915 19.5528 24.7028 19.1116 25.7689C18.6704 26.835 18.5551 28.008 18.7805 29.1395C19.0058 30.2711 19.5617 31.3104 20.3777 32.1261C21.1937 32.9418 22.2332 33.4972 23.3648 33.7221C24.4965 33.9471 25.6694 33.8314 26.7353 33.3898C27.8012 32.9481 28.7122 32.2004 29.3532 31.241C29.9941 30.2816 30.3362 29.1538 30.3362 28C30.3351 26.4527 29.7198 24.9691 28.6254 23.8752C27.5311 22.7813 26.0473 22.1665 24.5 22.1659ZM38.1402 17.6816C37.8432 16.9289 37.3947 16.2453 36.8225 15.6731C36.2504 15.101 35.5667 14.6525 34.8141 14.3555C32.5172 13.4487 27.0484 13.6522 24.5 13.6522C21.9516 13.6522 16.4883 13.4411 14.1848 14.3555C13.4322 14.6525 12.7486 15.101 12.1764 15.6731C11.6042 16.2453 11.1558 16.9289 10.8587 17.6816C9.95312 19.9784 10.1555 25.4527 10.1555 27.9989C10.1555 30.5452 9.95312 36.0128 10.8631 38.3173C11.1601 39.07 11.6086 39.7536 12.1808 40.3258C12.7529 40.8979 13.4365 41.3464 14.1892 41.6434C16.4861 42.5502 21.9548 42.3467 24.5044 42.3467C27.0539 42.3467 32.515 42.5578 34.8184 41.6434C35.5711 41.3464 36.2547 40.8979 36.8269 40.3258C37.399 39.7536 37.8475 39.07 38.1445 38.3173C39.0578 36.0205 38.8478 30.5462 38.8478 28C38.8478 25.4538 39.0578 19.9872 38.1445 17.6827L38.1402 17.6816ZM24.5 36.9688C22.7261 36.9688 20.9921 36.4427 19.5172 35.4572C18.0423 34.4717 16.8928 33.071 16.214 31.4322C15.5351 29.7934 15.3575 27.9901 15.7036 26.2503C16.0496 24.5105 16.9038 22.9124 18.1581 21.6581C19.4124 20.4038 21.0105 19.5496 22.7503 19.2036C24.4901 18.8575 26.2934 19.0351 27.9322 19.714C29.571 20.3928 30.9717 21.5423 31.9572 23.0172C32.9427 24.4921 33.4688 26.2261 33.4688 28C33.4702 29.1782 33.2392 30.3451 32.789 31.4339C32.3388 32.5227 31.6782 33.512 30.8451 34.3451C30.012 35.1782 29.0227 35.8388 27.9339 36.289C26.8451 36.7392 25.6782 36.9702 24.5 36.9688ZM33.8384 20.7484C33.4243 20.7487 33.0195 20.6261 32.6751 20.3962C32.3307 20.1663 32.0622 19.8394 31.9036 19.4569C31.745 19.0744 31.7033 18.6534 31.784 18.2473C31.8647 17.8411 32.0639 17.468 32.3567 17.1751C32.6494 16.8822 33.0224 16.6827 33.4285 16.6019C33.8346 16.521 34.2556 16.5624 34.6382 16.7208C35.0208 16.8792 35.3478 17.1475 35.5779 17.4918C35.808 17.8361 35.9308 18.2409 35.9308 18.655C35.9319 18.93 35.8788 19.2025 35.7744 19.4569C35.67 19.7113 35.5164 19.9426 35.3224 20.1375C35.1284 20.3324 34.8979 20.487 34.644 20.5926C34.39 20.6982 34.1178 20.7527 33.8428 20.7528L33.8384 20.7484ZM43.75 3.5H5.25C3.85761 3.5 2.52226 4.05312 1.53769 5.03769C0.553123 6.02226 0 7.35761 0 8.75L0 47.25C0 48.6424 0.553123 49.9777 1.53769 50.9623C2.52226 51.9469 3.85761 52.5 5.25 52.5H43.75C45.1424 52.5 46.4777 51.9469 47.4623 50.9623C48.4469 49.9777 49 48.6424 49 47.25V8.75C49 7.35761 48.4469 6.02226 47.4623 5.03769C46.4777 4.05312 45.1424 3.5 43.75 3.5ZM41.8775 35.2188C41.7364 38.022 41.0966 40.5059 39.0502 42.5469C37.0037 44.5878 34.522 45.2408 31.722 45.3742C28.8334 45.5372 20.1731 45.5372 17.2845 45.3742C14.4812 45.2331 12.0061 44.5922 9.95641 42.5469C7.90672 40.5016 7.2625 38.0166 7.12906 35.2188C6.96609 32.3291 6.96609 23.6677 7.12906 20.7812C7.27016 17.978 7.90234 15.4941 9.95641 13.4531C12.0105 11.4122 14.4922 10.7669 17.2845 10.6334C20.1731 10.4705 28.8334 10.4705 31.722 10.6334C34.5253 10.7745 37.0081 11.4155 39.0502 13.4608C41.0922 15.5061 41.7441 17.9911 41.8775 20.7944C42.0405 23.6731 42.0405 32.3269 41.8775 35.2188Z" fill="#F8F8F8"/>
</g>
<defs>
<clipPath id="clip0_226_932">
<rect width="49" height="56" fill="white"/>
</clipPath>
</defs>
</svg>
