<svg width="48" height="48" viewBox="0 0 48 48" fill="none" xmlns="http://www.w3.org/2000/svg">
<path d="M9.41186 0.012207C4.24145 0.012207 0.00976562 4.24379 0.00976562 9.4143V38.5907C0.00976562 43.7611 4.24135 47.9912 9.41186 47.9912H38.5882C43.7587 47.9912 47.9888 43.7611 47.9888 38.5907V9.4143C47.9888 4.24389 43.7587 0.012207 38.5882 0.012207H9.41186ZM11.7766 7.92971C14.2557 7.92971 15.7828 9.5572 15.8299 11.6965C15.8299 13.7886 14.2556 15.4618 11.7287 15.4618H11.6822C9.25025 15.4618 7.67839 13.7887 7.67839 11.6965C7.67839 9.55725 9.29781 7.92971 11.7766 7.92971H11.7766ZM33.1405 17.9286C37.9083 17.9286 41.4824 21.0448 41.4824 27.7415V40.2431H34.2366V28.5797C34.2366 25.6488 33.188 23.6492 30.5658 23.6492C28.564 23.6492 27.3708 24.997 26.8469 26.2989C26.6556 26.7647 26.6085 27.4153 26.6085 28.0669V40.2431H19.3628C19.3628 40.2431 19.4579 20.4856 19.3628 18.4399H26.61V21.5274C27.5729 20.0418 29.2952 17.9285 33.1405 17.9285V17.9286ZM8.10578 18.4415H15.3515V40.2432H8.10578V18.4415Z" fill="#F8F8F8"/>
</svg>
