<svg width="52" height="52" viewBox="0 0 52 52" fill="none" xmlns="http://www.w3.org/2000/svg">
<path d="M43.3333 16.3177C42.0694 16.8819 40.704 17.2656 39.237 17.4688C40.7717 16.566 41.8212 15.2457 42.3854 13.5078C40.9184 14.3655 39.4062 14.941 37.849 15.2344C36.4722 13.7448 34.7457 13 32.6693 13C30.7057 13 29.0299 13.694 27.6419 15.082C26.2539 16.4701 25.5599 18.1458 25.5599 20.1094C25.5599 20.7639 25.6163 21.3056 25.7292 21.7344C22.8177 21.5764 20.0868 20.8429 17.5365 19.5339C14.9861 18.2248 12.8194 16.4757 11.0365 14.2865C10.3819 15.4149 10.0547 16.6111 10.0547 17.875C10.0547 20.4479 11.0816 22.4227 13.1354 23.7995C12.0747 23.7769 10.9462 23.4835 9.75 22.9193V22.987C9.75 24.6797 10.3142 26.1862 11.4427 27.5065C12.5712 28.8268 13.9592 29.645 15.6068 29.9609C14.9523 30.1415 14.3767 30.2318 13.8802 30.2318C13.5868 30.2318 13.1467 30.1866 12.5599 30.0964C13.0339 31.5182 13.8746 32.6918 15.082 33.6172C16.2895 34.5425 17.6606 35.0165 19.1953 35.0391C16.5773 37.0703 13.6319 38.0859 10.3594 38.0859C9.77257 38.0859 9.20833 38.0521 8.66667 37.9844C12.0069 40.1059 15.6406 41.1667 19.5677 41.1667C22.0955 41.1667 24.4653 40.7661 26.6771 39.9648C28.8889 39.1636 30.7847 38.0916 32.3646 36.7487C33.9444 35.4058 35.3043 33.8598 36.444 32.1107C37.5838 30.3615 38.4301 28.5334 38.9831 26.6263C39.536 24.7192 39.8125 22.8177 39.8125 20.9219C39.8125 20.5156 39.8012 20.2109 39.7786 20.0078C41.2005 18.9922 42.3854 17.7622 43.3333 16.3177ZM52 9.75V42.25C52 44.9358 51.0464 47.2322 49.1393 49.1393C47.2322 51.0464 44.9358 52 42.25 52H9.75C7.06424 52 4.7678 51.0464 2.86068 49.1393C0.953559 47.2322 0 44.9358 0 42.25V9.75C0 7.06424 0.953559 4.7678 2.86068 2.86068C4.7678 0.953559 7.06424 0 9.75 0H42.25C44.9358 0 47.2322 0.953559 49.1393 2.86068C51.0464 4.7678 52 7.06424 52 9.75Z" fill="#F8F8F8"/>
</svg>
