{
  "asset": {
    "copyright": "cpmc",
    "generator": "Khronos glTF Blender I/O v1.8.19",
    "version": "2.0"
  },
  "scene": 0,
  "scenes": [
    {
      "name": "Scene",
      "nodes": [
        10
      ]
    }
  ],
  "nodes": [
    {
      "mesh": 0,
      "name": "11_person__0",
      "scale": [
        9.272504806518555,
        9.272504806518555,
        9.272504806518555
      ],
      "translation": [
        -13.813474655151367,
        10.555398941040039,
        -0.17910316586494446
      ],
      "rotation": [
        0,
        0,
        0,
        1
      ]
    },
    {
      "children": [
        0
      ],
      "name": "11_person",
      "rotation": [
        -0.7071068286895752,
        0,
        0,
        0.7071068286895752
      ],
      "scale": [
        181.71136474609375,
        181.71136474609375,
        181.71136474609375
      ],
      "translation": [
        3778.58056640625,
        0,
        -2836.05126953125
      ]
    },
    {
      "mesh": 1,
      "name": "151_person__0",
      "scale": [
        8.442399978637695,
        8.442399978637695,
        8.442399978637695
      ],
      "translation": [
        0,
        0,
        0
      ],
      "rotation": [
        0,
        0,
        0,
        1
      ]
    },
    {
      "children": [
        2
      ],
      "name": "151_person",
      "rotation": [
        -0.7071068286895752,
        0,
        0,
        0.7071068286895752
      ],
      "scale": [
        181.71136474609375,
        181.71136474609375,
        181.71136474609375
      ],
      "translation": [
        705.389892578125,
        0,
        -4671.53955078125
      ]
    },
    {
      "mesh": 2,
      "name": "156_person__0",
      "scale": [
        8.649605751037598,
        8.649605751037598,
        8.649605751037598
      ],
      "translation": [
        0,
        0,
        0
      ],
      "rotation": [
        0,
        0,
        0,
        1
      ]
    },
    {
      "children": [
        4
      ],
      "name": "156_person",
      "rotation": [
        -0.7071068286895752,
        0,
        0,
        0.7071068286895752
      ],
      "scale": [
        181.71136474609375,
        181.71136474609375,
        181.71136474609375
      ],
      "translation": [
        183.52366638183594,
        0,
        -4720.9296875
      ]
    },
    {
      "mesh": 3,
      "name": "16_person__0",
      "scale": [
        8.002817153930664,
        8.002817153930664,
        8.002817153930664
      ],
      "translation": [
        5.401828289031982,
        -0.44692471623420715,
        -0.019335120916366577
      ],
      "rotation": [
        0,
        0,
        0,
        1
      ]
    },
    {
      "children": [
        6
      ],
      "name": "16_person",
      "rotation": [
        -0.7071068286895752,
        0,
        0,
        0.7071068286895752
      ],
      "scale": [
        181.71136474609375,
        181.71136474609375,
        181.71136474609375
      ],
      "translation": [
        -1369.873046875,
        0,
        -4521.53759765625
      ]
    },
    {
      "children": [
        1,
        3,
        5,
        7
      ],
      "name": "RootNode"
    },
    {
      "children": [
        8
      ],
      "name": "b090eebe14b142cf99358eed649840dd.fbx",
      "rotation": [
        0.7071068286895752,
        0,
        0,
        0.7071068286895752
      ],
      "translation": [
        0,
        0,
        0
      ],
      "scale": [
        1,
        1,
        1
      ]
    },
    {
      "children": [
        9
      ],
      "name": "Sketchfab_model",
      "rotation": [
        -0.7071068286895752,
        0,
        0,
        0.7071068286895752
      ],
      "scale": [
        0.05407099798321724,
        0.05407099798321724,
        0.05407099798321724
      ],
      "translation": [
        0,
        0,
        0
      ]
    }
  ],
  "materials": [
    {
      "doubleSided": true,
      "name": "273_person__0",
      "pbrMetallicRoughness": {
        "metallicFactor": 0,
        "baseColorFactor": [
          1,
          1,
          1,
          1
        ],
        "roughnessFactor": 1
      },
      "emissiveFactor": [
        0,
        0,
        0
      ],
      "alphaMode": "OPAQUE"
    }
  ],
  "meshes": [
    {
      "name": "11_person__0",
      "primitives": [
        {
          "attributes": {
            "POSITION": 0,
            "NORMAL": 1,
            "TEXCOORD_0": 2
          },
          "indices": 3,
          "material": 0,
          "mode": 4
        }
      ]
    },
    {
      "name": "151_person__0",
      "primitives": [
        {
          "attributes": {
            "POSITION": 4,
            "NORMAL": 5,
            "TEXCOORD_0": 6
          },
          "indices": 3,
          "material": 0,
          "mode": 4
        }
      ]
    },
    {
      "name": "156_person__0",
      "primitives": [
        {
          "attributes": {
            "POSITION": 7,
            "NORMAL": 8,
            "TEXCOORD_0": 9
          },
          "indices": 10,
          "material": 0,
          "mode": 4
        }
      ]
    },
    {
      "name": "16_person__0",
      "primitives": [
        {
          "attributes": {
            "POSITION": 11,
            "NORMAL": 12,
            "TEXCOORD_0": 13
          },
          "indices": 3,
          "material": 0,
          "mode": 4
        }
      ]
    }
  ],
  "accessors": [
    {
      "bufferView": 0,
      "componentType": 5126,
      "count": 1500,
      "max": [
        0.2414812594652176,
        0.2614402174949646,
        0.9899530410766602
      ],
      "min": [
        -0.13314321637153625,
        -0.13704219460487366,
        0.003039409639313817
      ],
      "type": "VEC3",
      "byteOffset": 0
    },
    {
      "bufferView": 1,
      "componentType": 5126,
      "count": 1500,
      "type": "VEC3",
      "byteOffset": 0
    },
    {
      "bufferView": 2,
      "componentType": 5126,
      "count": 1500,
      "type": "VEC2",
      "byteOffset": 0
    },
    {
      "bufferView": 3,
      "componentType": 5123,
      "count": 1500,
      "type": "SCALAR",
      "byteOffset": 0
    },
    {
      "bufferView": 4,
      "componentType": 5126,
      "count": 1500,
      "max": [
        0.19386623799800873,
        0.1305708885192871,
        1.067832112312317
      ],
      "min": [
        -0.16513395309448242,
        -0.11108439415693283,
        0.0004896882455796003
      ],
      "type": "VEC3",
      "byteOffset": 0
    },
    {
      "bufferView": 5,
      "componentType": 5126,
      "count": 1500,
      "type": "VEC3",
      "byteOffset": 0
    },
    {
      "bufferView": 6,
      "componentType": 5126,
      "count": 1500,
      "type": "VEC2",
      "byteOffset": 0
    },
    {
      "bufferView": 7,
      "componentType": 5126,
      "count": 1494,
      "max": [
        0.20713688433170319,
        0.12412921339273453,
        1.0424723625183105
      ],
      "min": [
        -0.1809781789779663,
        -0.14407898485660553,
        0.001482475083321333
      ],
      "type": "VEC3",
      "byteOffset": 0
    },
    {
      "bufferView": 8,
      "componentType": 5126,
      "count": 1494,
      "type": "VEC3",
      "byteOffset": 0
    },
    {
      "bufferView": 9,
      "componentType": 5126,
      "count": 1494,
      "type": "VEC2",
      "byteOffset": 0
    },
    {
      "bufferView": 10,
      "componentType": 5123,
      "count": 1494,
      "type": "SCALAR",
      "byteOffset": 0
    },
    {
      "bufferView": 11,
      "componentType": 5126,
      "count": 1500,
      "max": [
        0.14176315069198608,
        0.20383808016777039,
        1.0404964685440063
      ],
      "min": [
        -0.1482875645160675,
        -0.10032851994037628,
        -0.0008219152805395424
      ],
      "type": "VEC3",
      "byteOffset": 0
    },
    {
      "bufferView": 12,
      "componentType": 5126,
      "count": 1500,
      "type": "VEC3",
      "byteOffset": 0
    },
    {
      "bufferView": 13,
      "componentType": 5126,
      "count": 1500,
      "type": "VEC2",
      "byteOffset": 0
    }
  ],
  "bufferViews": [
    {
      "buffer": 0,
      "byteLength": 18000,
      "byteOffset": 0,
      "byteStride": 12,
      "target": 34962
    },
    {
      "buffer": 0,
      "byteLength": 18000,
      "byteOffset": 18000,
      "byteStride": 12,
      "target": 34962
    },
    {
      "buffer": 0,
      "byteLength": 12000,
      "byteOffset": 36000,
      "byteStride": 8,
      "target": 34962
    },
    {
      "buffer": 0,
      "byteLength": 3000,
      "byteOffset": 48000,
      "target": 34963
    },
    {
      "buffer": 0,
      "byteLength": 18000,
      "byteOffset": 51000,
      "byteStride": 12,
      "target": 34962
    },
    {
      "buffer": 0,
      "byteLength": 18000,
      "byteOffset": 69000,
      "byteStride": 12,
      "target": 34962
    },
    {
      "buffer": 0,
      "byteLength": 12000,
      "byteOffset": 87000,
      "byteStride": 8,
      "target": 34962
    },
    {
      "buffer": 0,
      "byteLength": 17928,
      "byteOffset": 99000,
      "byteStride": 12,
      "target": 34962
    },
    {
      "buffer": 0,
      "byteLength": 17928,
      "byteOffset": 116928,
      "byteStride": 12,
      "target": 34962
    },
    {
      "buffer": 0,
      "byteLength": 11952,
      "byteOffset": 134856,
      "byteStride": 8,
      "target": 34962
    },
    {
      "buffer": 0,
      "byteLength": 2988,
      "byteOffset": 146808,
      "target": 34963
    },
    {
      "buffer": 0,
      "byteLength": 18000,
      "byteOffset": 149800,
      "byteStride": 12,
      "target": 34962
    },
    {
      "buffer": 0,
      "byteLength": 18000,
      "byteOffset": 167800,
      "byteStride": 12,
      "target": 34962
    },
    {
      "buffer": 0,
      "byteLength": 12000,
      "byteOffset": 185800,
      "byteStride": 8,
      "target": 34962
    }
  ],
  "buffers": [
    {
      "name": "teamModel",
      "byteLength": 197800,
      "uri": "data:application/octet-stream;base64,"
    }
  ]
}
