<svg xmlns="http://www.w3.org/2000/svg" xmlns:xlink="http://www.w3.org/1999/xlink" width="500" zoomAndPan="magnify" viewBox="0 0 375 149.999998" height="200" preserveAspectRatio="xMidYMid meet" version="1.0"><defs><clipPath id="id1"><path d="M 9.46875 37 L 78 37 L 78 141 L 9.46875 141 Z M 9.46875 37 " clip-rule="nonzero"/></clipPath><clipPath id="id2"><path d="M 296 37 L 365.71875 37 L 365.71875 141 L 296 141 Z M 296 37 " clip-rule="nonzero"/></clipPath></defs><g clip-path="url(#id1)"><path fill="#f32053" d="M 77.921875 37.121094 L 77.921875 57.199219 L 24.976562 88.636719 L 77.921875 121.589844 L 77.921875 140.527344 L 9.46875 98.105469 L 9.46875 80.304688 Z M 77.921875 37.121094 " fill-opacity="1" fill-rule="nonzero"/></g><g clip-path="url(#id2)"><path fill="#ffffff" d="M 296.890625 140.527344 L 296.890625 120.453125 L 349.835938 89.015625 L 296.890625 56.0625 L 296.890625 37.121094 L 365.339844 79.546875 L 365.339844 97.347656 Z M 296.890625 140.527344 " fill-opacity="1" fill-rule="nonzero"/></g><path fill="#a8ecf0" d="M 231.085938 92.714844 L 231.085938 108.332031 L 240.160156 108.332031 L 260.714844 74.011719 L 260.714844 118.179688 L 276.46875 118.179688 L 276.46875 39.394531 L 260.714844 39.394531 Z M 231.085938 92.714844 " fill-opacity="1" fill-rule="nonzero"/><path fill="#407bff" d="M 184.191406 142.421875 L 184.191406 39.394531 L 201.730469 39.394531 L 231.085938 91.886719 L 231.085938 108.339844 L 220.792969 108.339844 L 201.347656 75.828125 L 201.347656 142.421875 Z M 184.191406 142.421875 " fill-opacity="1" fill-rule="nonzero"/><path fill="#a8ecf0" d="M 193.265625 30.304688 C 199.535156 30.304688 204.613281 25.214844 204.613281 18.941406 C 204.613281 12.664062 199.535156 7.578125 193.265625 7.578125 C 187 7.578125 181.921875 12.664062 181.921875 18.941406 C 181.921875 25.214844 187 30.304688 193.265625 30.304688 Z M 193.265625 30.304688 " fill-opacity="1" fill-rule="nonzero"/><path fill="#407bff" d="M 266.636719 30.304688 C 272.902344 30.304688 277.980469 25.214844 277.980469 18.941406 C 277.980469 12.664062 272.902344 7.578125 266.636719 7.578125 C 260.371094 7.578125 255.289062 12.664062 255.289062 18.941406 C 255.289062 25.214844 260.371094 30.304688 266.636719 30.304688 Z M 266.636719 30.304688 " fill-opacity="1" fill-rule="nonzero"/><path fill="#ffffff" d="M 131.390625 38.335938 L 98.480469 38.335938 C 97.84375 38.335938 97.207031 38.96875 97.207031 39.480469 L 97.207031 57.042969 L 131.390625 57.042969 C 133.675781 57.042969 146.386719 57.679688 146.386719 68.878906 C 146.386719 80.078125 133.933594 80.332031 131.390625 80.332031 L 97.207031 80.332031 L 97.207031 139.003906 C 97.207031 139.511719 97.84375 140.148438 98.480469 140.148438 L 115 140.148438 C 115.886719 140.148438 116.269531 139.511719 116.269531 139.003906 L 116.269531 99.167969 L 131.390625 99.167969 C 133.804688 99.167969 165.699219 98.789062 165.699219 68.878906 C 165.699219 38.96875 135.457031 38.335938 131.390625 38.335938 Z M 131.390625 38.335938 " fill-opacity="1" fill-rule="nonzero"/></svg>