<svg width="36" height="41" viewBox="0 0 36 41" fill="none" xmlns="http://www.w3.org/2000/svg">
<path d="M32.1429 2.5625H3.85714C1.72768 2.5625 0 4.28418 0 6.40625V34.5938C0 36.7158 1.72768 38.4375 3.85714 38.4375H32.1429C34.2723 38.4375 36 36.7158 36 34.5938V6.40625C36 4.28418 34.2723 2.5625 32.1429 2.5625ZM22.283 33.2885C21.608 33.4086 21.3589 32.9922 21.3589 32.6479C21.3589 32.2154 21.375 30.0053 21.375 28.2195C21.375 26.9703 20.9571 26.1775 20.467 25.7611C23.4402 25.4328 26.5741 25.0244 26.5741 19.9074C26.5741 18.45 26.0518 17.7213 25.2 16.7844C25.3366 16.44 25.7946 15.0227 25.0634 13.1809C23.9464 12.8365 21.3911 14.6143 21.3911 14.6143C20.3304 14.318 19.1812 14.1658 18.0482 14.1658C16.9152 14.1658 15.7661 14.318 14.7054 14.6143C14.7054 14.6143 12.15 12.8365 11.033 13.1809C10.3018 15.0146 10.7518 16.432 10.8964 16.7844C10.0446 17.7213 9.64286 18.45 9.64286 19.9074C9.64286 25.0004 12.6402 25.4328 15.6134 25.7611C15.2277 26.1055 14.8821 26.698 14.7616 27.5469C13.9982 27.8912 12.0455 28.4838 10.8804 26.4338C10.1491 25.1686 8.83125 25.0645 8.83125 25.0645C7.52946 25.0484 8.74286 25.8813 8.74286 25.8813C9.61071 26.2816 10.2214 27.8191 10.2214 27.8191C11.0009 30.1975 14.7295 29.3967 14.7295 29.3967C14.7295 30.5098 14.7455 32.3195 14.7455 32.6479C14.7455 32.9922 14.5045 33.4086 13.8214 33.2885C8.51786 31.5188 4.80536 26.4898 4.80536 20.6121C4.80536 13.2609 10.4464 7.67949 17.8232 7.67949C25.2 7.67949 31.1786 13.2609 31.1786 20.6121C31.1866 26.4898 27.5866 31.5268 22.283 33.2885ZM14.4 28.3957C14.2473 28.4277 14.1027 28.3637 14.0866 28.2596C14.0705 28.1395 14.175 28.0354 14.3277 28.0033C14.4804 27.9873 14.625 28.0514 14.6411 28.1555C14.6652 28.2596 14.5607 28.3637 14.4 28.3957ZM13.6366 28.3236C13.6366 28.4277 13.5161 28.5158 13.3554 28.5158C13.1786 28.5318 13.058 28.4438 13.058 28.3236C13.058 28.2195 13.1786 28.1314 13.3393 28.1314C13.492 28.1154 13.6366 28.2035 13.6366 28.3236ZM12.5357 28.2355C12.5036 28.3396 12.3429 28.3877 12.2062 28.3396C12.0536 28.3076 11.9491 28.1875 11.9813 28.0834C12.0134 27.9793 12.1741 27.9313 12.3107 27.9633C12.4714 28.0113 12.5759 28.1314 12.5357 28.2355ZM11.5473 27.8031C11.475 27.8912 11.3223 27.8752 11.2018 27.7551C11.0812 27.651 11.0491 27.4988 11.1295 27.4268C11.2018 27.3387 11.3545 27.3547 11.475 27.4748C11.5795 27.5789 11.6196 27.7391 11.5473 27.8031ZM10.8161 27.0744C10.7438 27.1225 10.6071 27.0744 10.5187 26.9543C10.4304 26.8342 10.4304 26.698 10.5187 26.642C10.6071 26.5699 10.7438 26.626 10.8161 26.7461C10.9045 26.8662 10.9045 27.0104 10.8161 27.0744ZM10.2938 26.2977C10.2214 26.3697 10.1009 26.3297 10.0125 26.2496C9.92411 26.1455 9.90804 26.0254 9.98036 25.9693C10.0527 25.8973 10.1732 25.9373 10.2616 26.0174C10.35 26.1215 10.3661 26.2416 10.2938 26.2977ZM9.75536 25.7051C9.72321 25.7771 9.61875 25.7932 9.53036 25.7371C9.42589 25.6891 9.37768 25.601 9.40982 25.5289C9.44196 25.4809 9.53036 25.4568 9.63482 25.4969C9.73929 25.5529 9.7875 25.641 9.75536 25.7051Z" fill="white"/>
</svg>
