<svg width="49" height="49" viewBox="0 0 49 49" fill="none" xmlns="http://www.w3.org/2000/svg">
<path d="M42.7671 16.956C42.7465 15.4097 42.457 13.8788 41.9116 12.4317C41.4386 11.2111 40.7163 10.1025 39.7907 9.17692C38.865 8.25129 37.7565 7.52893 36.5359 7.05597C35.1074 6.51974 33.5983 6.2298 32.0728 6.19847C30.1087 6.11068 29.486 6.08618 24.5003 6.08618C19.5145 6.08618 18.8755 6.08618 16.9257 6.19847C15.4009 6.23003 13.8925 6.51997 12.4646 7.05597C11.2438 7.5286 10.1351 8.25085 9.20947 9.17652C8.28381 10.1022 7.56156 11.2109 7.08893 12.4317C6.55163 13.8591 6.26231 15.3678 6.23347 16.8927C6.14568 18.8588 6.11914 19.4816 6.11914 24.4673C6.11914 29.4531 6.11914 30.0901 6.23347 32.0419C6.2641 33.5691 6.55197 35.0758 7.08893 36.507C7.56235 37.7274 8.28514 38.8357 9.21111 39.761C10.1371 40.6862 11.2459 41.4082 12.4667 41.8807C13.8906 42.4385 15.3993 42.7492 16.9277 42.7994C18.8938 42.8872 19.5166 42.9138 24.5023 42.9138C29.4881 42.9138 30.1271 42.9138 32.0769 42.7994C33.6023 42.7694 35.1115 42.4801 36.54 41.944C37.7603 41.4705 38.8685 40.7479 39.7941 39.8224C40.7196 38.8968 41.4422 37.7886 41.9157 36.5683C42.4526 35.1391 42.7405 33.6323 42.7711 32.1031C42.8589 30.1391 42.8855 29.5163 42.8855 24.5286C42.8814 19.5428 42.8814 18.9099 42.7671 16.956ZM24.488 33.8957C19.2736 33.8957 15.0494 29.6715 15.0494 24.4571C15.0494 19.2427 19.2736 15.0185 24.488 15.0185C26.9913 15.0185 29.392 16.0129 31.1621 17.783C32.9322 19.5531 33.9266 21.9538 33.9266 24.4571C33.9266 26.9604 32.9322 29.3611 31.1621 31.1312C29.392 32.9013 26.9913 33.8957 24.488 33.8957ZM34.3023 16.8703C34.0132 16.8705 33.7269 16.8138 33.4597 16.7033C33.1926 16.5928 32.9499 16.4307 32.7454 16.2262C32.541 16.0218 32.3789 15.7791 32.2684 15.5119C32.1579 15.2448 32.1011 14.9585 32.1014 14.6693C32.1014 14.3805 32.1583 14.0944 32.2688 13.8275C32.3794 13.5606 32.5414 13.3181 32.7457 13.1138C32.95 12.9095 33.1925 12.7475 33.4594 12.6369C33.7263 12.5264 34.0124 12.4695 34.3013 12.4695C34.5902 12.4695 34.8762 12.5264 35.1431 12.6369C35.4101 12.7475 35.6526 12.9095 35.8568 13.1138C36.0611 13.3181 36.2232 13.5606 36.3337 13.8275C36.4443 14.0944 36.5012 14.3805 36.5012 14.6693C36.5012 15.8862 35.5171 16.8703 34.3023 16.8703Z" fill="#FF6347"/>
<path d="M24.4885 30.5882C27.8747 30.5882 30.6197 27.8432 30.6197 24.4571C30.6197 21.0709 27.8747 18.3259 24.4885 18.3259C21.1024 18.3259 18.3574 21.0709 18.3574 24.4571C18.3574 27.8432 21.1024 30.5882 24.4885 30.5882Z" fill="#FF6347"/>
</svg>
