<svg width="39" height="39" viewBox="0 0 39 39" fill="none" xmlns="http://www.w3.org/2000/svg">
<path d="M7.64702 0.00976562C3.44605 0.00976562 0.0078125 3.44793 0.0078125 7.64897V31.3548C0.0078125 35.5557 3.44597 38.9927 7.64702 38.9927H31.3528C35.5538 38.9927 38.9908 35.5558 38.9908 31.3548V7.64897C38.9908 3.44801 35.5538 0.00976562 31.3528 0.00976562H7.64702ZM9.56839 6.44274C11.5827 6.44274 12.8234 7.76507 12.8617 9.50326C12.8617 11.2031 11.5826 12.5626 9.52943 12.5626H9.49164C7.5157 12.5626 6.23857 11.2032 6.23857 9.50326C6.23857 7.76511 7.55435 6.44274 9.56835 6.44274H9.56839ZM26.9265 14.5668C30.8003 14.5668 33.7043 17.0988 33.7043 22.5398V32.6973H27.8172V23.2209C27.8172 20.8395 26.9651 19.2148 24.8346 19.2148C23.2081 19.2148 22.2387 20.3099 21.813 21.3677C21.6575 21.7462 21.6193 22.2747 21.6193 22.8042V32.6973H15.7321C15.7321 32.6973 15.8094 16.6444 15.7321 14.9823H21.6205V17.4909C22.4029 16.2838 23.8023 14.5668 26.9265 14.5668V14.5668ZM6.58583 14.9835H12.473V32.6974H6.58583V14.9835Z" fill="#407BFF"/>
</svg>
