{
    "asset" : {
        "generator" : "Khronos glTF Blender I/O v1.8.19",
        "version" : "2.0"
    },
    "scene" : 0,
    "scenes" : [
        {
            "name" : "Scene",
            "nodes" : [
                7
            ]
        }
    ],
    "nodes" : [
        {
            "mesh" : 0,
            "name" : "90_person__0"
        },
        {
            "children" : [
                0
            ],
            "name" : "90_person",
            "rotation" : [
                -0.7071068286895752,
                0,
                0,
                0.7071068286895752
            ],
            "scale" : [
                181.71136474609375,
                181.71136474609375,
                181.71136474609375
            ],
            "translation" : [
                4608.52490234375,
                0,
                1040.3629150390625
            ]
        },
        {
            "mesh" : 1,
            "name" : "91_person__0"
        },
        {
            "children" : [
                2
            ],
            "name" : "91_person",
            "rotation" : [
                -0.7071068286895752,
                0,
                0,
                0.7071068286895752
            ],
            "scale" : [
                181.71136474609375,
                181.71136474609375,
                181.71136474609375
            ],
            "translation" : [
                4630.4853515625,
                0,
                937.7963256835938
            ]
        },
        {
            "name" : "92_person",
            "rotation" : [
                -0.7071068286895752,
                0,
                0,
                0.7071068286895752
            ],
            "scale" : [
                181.71136474609375,
                181.71136474609375,
                181.71136474609375
            ],
            "translation" : [
                4650.16357421875,
                0,
                834.767333984375
            ]
        },
        {
            "children" : [
                1,
                3,
                4
            ],
            "name" : "RootNode"
        },
        {
            "children" : [
                5
            ],
            "name" : "b090eebe14b142cf99358eed649840dd.fbx",
            "rotation" : [
                0.7071068286895752,
                0,
                0,
                0.7071068286895752
            ]
        },
        {
            "children" : [
                6
            ],
            "name" : "Sketchfab_model",
            "rotation" : [
                -0.7071068286895752,
                0,
                0,
                0.7071068286895752
            ],
            "scale" : [
                0.05407099798321724,
                0.05407099798321724,
                0.05407099798321724
            ]
        }
    ],
    "materials" : [
        {
            "doubleSided" : true,
            "name" : "273_person__0",
            "pbrMetallicRoughness" : {
                "metallicFactor" : 0
            }
        }
    ],
    "meshes" : [
        {
            "name" : "90_person__0",
            "primitives" : [
                {
                    "attributes" : {
                        "POSITION" : 0,
                        "NORMAL" : 1,
                        "TEXCOORD_0" : 2
                    },
                    "indices" : 3,
                    "material" : 0
                }
            ]
        },
        {
            "name" : "91_person__0",
            "primitives" : [
                {
                    "attributes" : {
                        "POSITION" : 4,
                        "NORMAL" : 5,
                        "TEXCOORD_0" : 6
                    },
                    "indices" : 7,
                    "material" : 0
                }
            ]
        }
    ],
    "accessors" : [
        {
            "bufferView" : 0,
            "componentType" : 5126,
            "count" : 1494,
            "max" : [
                0.1326161026954651,
                0.15479978919029236,
                1.025596022605896
            ],
            "min" : [
                -0.10732866078615189,
                -0.1511995643377304,
                0.0034300305414944887
            ],
            "type" : "VEC3"
        },
        {
            "bufferView" : 1,
            "componentType" : 5126,
            "count" : 1494,
            "type" : "VEC3"
        },
        {
            "bufferView" : 2,
            "componentType" : 5126,
            "count" : 1494,
            "type" : "VEC2"
        },
        {
            "bufferView" : 3,
            "componentType" : 5123,
            "count" : 1494,
            "type" : "SCALAR"
        },
        {
            "bufferView" : 4,
            "componentType" : 5126,
            "count" : 1500,
            "max" : [
                0.1268177032470703,
                0.16632847487926483,
                0.9929714202880859
            ],
            "min" : [
                -0.10745701193809509,
                -0.1458267867565155,
                -0.0004421236808411777
            ],
            "type" : "VEC3"
        },
        {
            "bufferView" : 5,
            "componentType" : 5126,
            "count" : 1500,
            "type" : "VEC3"
        },
        {
            "bufferView" : 6,
            "componentType" : 5126,
            "count" : 1500,
            "type" : "VEC2"
        },
        {
            "bufferView" : 7,
            "componentType" : 5123,
            "count" : 1500,
            "type" : "SCALAR"
        }
    ],
    "bufferViews" : [
        {
            "buffer" : 0,
            "byteLength" : 17928,
            "byteOffset" : 0
        },
        {
            "buffer" : 0,
            "byteLength" : 17928,
            "byteOffset" : 17928
        },
        {
            "buffer" : 0,
            "byteLength" : 11952,
            "byteOffset" : 35856
        },
        {
            "buffer" : 0,
            "byteLength" : 2988,
            "byteOffset" : 47808
        },
        {
            "buffer" : 0,
            "byteLength" : 18000,
            "byteOffset" : 50796
        },
        {
            "buffer" : 0,
            "byteLength" : 18000,
            "byteOffset" : 68796
        },
        {
            "buffer" : 0,
            "byteLength" : 12000,
            "byteOffset" : 86796
        },
        {
            "buffer" : 0,
            "byteLength" : 3000,
            "byteOffset" : 98796
        }
    ],
    "buffers" : [
        {
            "byteLength" : 101796,
            "uri" : "Models2.bin"
        }
    ]
}
